PathFileType	3	(X/Y/Z)	RCH0000002 BBF 13.c3d
DataRate	CameraRate	NumFrames	NumMarkers	Units	OrigDataRate	OrigDataStartFrame	OrigNumFrames
100.0	100.0	15	23	mm	100.0	256	457
Frame#	Time	T2			T10			MAN			LASI			RASI			LPSI			RPSI			LPAT			LKNE			LANK			LMED			LHEE			LTOE			RPAT			RKNE			RANK			RMED			RHEE			RTOE			RTHI			LTHI			RTIB			LTIB			
		X1	Y1	Z1	X2	Y2	Z2	X3	Y3	Z3	X4	Y4	Z4	X5	Y5	Z5	X6	Y6	Z6	X7	Y7	Z7	X8	Y8	Z8	X9	Y9	Z9	X10	Y10	Z10	X11	Y11	Z11	X12	Y12	Z12	X13	Y13	Z13	X14	Y14	Z14	X15	Y15	Z15	X16	Y16	Z16	X17	Y17	Z17	X18	Y18	Z18	X19	Y19	Z19	X20	Y20	Z20	X21	Y21	Z21	X22	Y22	Z22	X23	Y23	Z23	

256	2.550	26.26009	-26.36783	966.60933	29.19363	-41.16240	777.77741	157.41503	-5.74844	931.98092	132.18657	15.07732	624.36080	104.01644	-158.09078	640.03742	16.89667	-12.02584	681.36854	8.05986	-82.61850	690.44720	188.12290	-42.45380	377.54545	170.48261	25.77639	334.96783	121.80107	74.66562	70.45628	103.93237	5.33974	81.09313	72.17563	43.85129	96.87410	160.14084	27.42677	66.36064	30.71168	-98.44727	342.62035	-30.10445	-145.89884	331.40349	-198.11932	-140.08183	113.79718	-201.79623	-73.66962	133.49419	-217.38531	-114.25472	169.04408	-176.59215	-98.05400	76.88440	16.25188	-219.87081	430.12432	149.48765	96.26169	457.83986	-105.45342	-209.61370	238.45588	170.07869	105.66499	231.64451	
257	2.560	37.84357	-26.78750	967.19543	42.56749	-43.67057	778.62107	169.25761	-6.22453	933.56337	143.00457	16.68219	626.77004	118.61454	-157.23258	638.31046	28.92017	-14.47342	683.90577	21.45403	-85.36846	691.11199	193.01432	-36.67396	377.06313	172.86256	30.97659	335.07883	121.34919	76.84845	69.97381	103.78312	7.67130	81.86513	72.18378	46.19211	97.45209	159.77798	29.58348	66.07319	50.57120	-97.78516	340.17532	-10.57462	-144.97721	328.83816	-184.88226	-140.45402	117.15580	-187.88664	-73.84538	136.39823	-201.94218	-114.19971	172.86246	-164.87179	-98.78592	78.83860	34.25208	-219.00752	428.24518	154.24441	100.58378	458.76061	-87.79048	-209.15971	238.80637	170.83573	109.95101	230.55247	
258	2.570	49.31140	-27.58576	968.20122	55.67167	-46.22252	779.88871	180.91722	-6.96537	935.51073	153.42992	18.45255	629.47621	133.04903	-156.14958	637.04640	40.67259	-16.84656	686.80810	34.63193	-88.00970	692.19593	196.87342	-30.95440	376.91748	174.23780	36.17821	335.57403	120.50484	78.77990	69.76876	103.41821	9.74210	82.80335	71.80460	48.19005	98.18253	159.12146	31.60311	66.02416	71.06000	-97.03703	338.37874	9.66757	-144.03613	326.71925	-170.46200	-140.74364	120.82577	-172.74218	-73.91121	139.48608	-185.53069	-113.96303	176.78990	-151.56867	-99.57534	81.28497	52.78261	-218.07942	426.88573	158.31613	104.92030	460.02752	-69.33507	-208.66196	239.59855	170.59149	114.19709	229.80659	
259	2.580	60.65107	-28.73808	969.57664	68.46689	-48.73040	781.51306	192.37899	-7.95557	937.76156	163.50671	20.32792	632.36715	147.25080	-154.87358	636.28117	52.17312	-19.05896	689.95986	47.56800	-90.44618	693.64025	199.79590	-25.55930	377.02716	174.77728	41.14378	336.36958	119.40055	80.30056	69.80528	103.00531	11.38673	83.83696	71.18007	49.65048	99.00638	158.33621	33.35090	66.17277	92.09519	-96.24884	337.32588	30.53197	-143.11163	325.13596	-154.81852	-140.96655	124.69883	-156.34245	-73.89148	142.67765	-168.17935	-113.57771	180.73174	-136.59373	-100.41827	84.14668	71.71129	-217.13168	426.12825	161.88762	109.07148	461.53141	-50.15029	-208.15395	240.85028	169.45720	118.19160	229.37950	
260	2.590	71.85690	-30.20196	971.25764	80.92375	-51.11758	783.41256	203.63798	-9.17027	940.24026	173.27974	22.24715	635.33099	161.16458	-153.44560	636.02073	63.43784	-21.04935	693.23831	60.24144	-92.60917	695.36746	201.94186	-20.68045	377.31661	174.67769	45.68546	337.38193	118.12741	81.30016	70.05389	102.66617	12.48894	84.91499	70.41962	50.43230	99.89019	157.53746	34.73338	66.47938	113.60039	-95.46491	337.08109	51.93471	-142.23724	324.14802	-137.90822	-141.14003	128.63381	-138.67502	-73.81426	145.87175	-149.90021	-113.08799	184.57204	-119.88834	-101.30104	87.30964	90.90640	-216.21087	426.02108	165.12048	112.88095	463.16296	-30.27565	-207.66694	242.53841	167.55810	121.76814	229.23933	
261	2.600	82.93107	-31.92038	973.16950	93.02254	-53.32416	785.49635	214.70005	-10.57708	942.85908	182.78977	24.15284	638.26352	174.75048	-151.91185	636.23938	74.47628	-22.78662	696.52011	72.63540	-94.46239	697.28491	203.52203	-16.42567	377.72078	174.15444	49.67827	338.53512	116.75625	81.73249	70.49052	102.48554	12.99813	86.00682	69.61437	50.47222	100.82318	156.80350	35.70733	66.90672	135.50653	-94.72324	337.67538	73.80189	-141.44090	323.78369	-119.69008	-141.28158	132.47078	-119.73839	-73.70846	148.95500	-130.69153	-112.54470	188.18360	-101.42914	-102.20243	90.63489	110.24661	-215.36019	426.57536	168.14631	116.24462	464.82514	-9.72754	-207.22645	244.60162	165.04919	124.81837	229.35176	
262	2.610	93.88383	-33.82643	975.23063	104.75271	-55.31064	787.66983	225.58171	-12.13844	945.52116	192.07027	25.99487	641.07403	187.98448	-150.31955	636.88101	85.28991	-24.27121	699.68711	84.73670	-96.00316	699.28933	204.77720	-12.81993	378.18585	173.43042	53.06444	339.76461	115.35488	81.62094	71.09384	102.51945	12.93609	87.09937	68.84775	49.79682	101.81072	156.18788	36.28170	67.42017	157.75133	-94.05184	339.10748	96.07221	-140.74259	324.04120	-100.13243	-141.40865	136.04840	-99.54397	-73.60198	151.81236	-110.54324	-112.00048	191.44015	-81.22927	-103.09815	93.97413	129.63067	-214.61493	427.76606	171.06696	119.11223	466.44202	11.49642	-206.85023	246.94949	162.12319	127.29744	229.68096	
263	2.620	104.73321	-35.84852	977.35657	116.11259	-57.05940	789.83984	236.30940	-13.81441	948.12457	201.14617	27.73279	643.68916	200.85776	-148.71330	637.86334	95.87273	-25.53260	702.63134	96.53594	-97.25967	701.27228	205.95388	-9.81788	378.66745	172.72330	55.84937	341.01806	113.99786	81.05372	71.84172	102.80144	12.39291	88.19192	68.20036	48.52025	102.86597	155.72897	36.51255	67.98756	180.27742	-93.46608	341.34763	118.69767	-140.15294	324.89345	-79.21897	-141.53929	139.22151	-78.11633	-73.52077	154.33735	-89.44332	-111.50541	194.22828	-59.33575	-103.96659	97.18568	148.98513	-213.99883	429.53708	173.95983	121.48230	467.96265	33.40992	-206.54784	249.47591	159.00793	129.22190	230.18969	
264	2.630	115.50402	-37.91592	979.46390	127.10907	-58.57412	791.91945	246.91788	-15.56556	950.56697	210.03467	29.33669	646.05455	213.37530	-147.13242	639.08448	106.21376	-26.62348	705.25899	108.02819	-98.28490	703.12577	207.27966	-7.32432	379.12759	172.23231	58.09044	342.25383	112.76791	80.16988	72.70819	103.34644	11.51284	89.29008	67.74881	46.82809	104.00164	155.45582	36.49203	68.57889	203.02908	-92.96763	344.34340	141.64173	-139.67271	326.29457	-56.95276	-141.69302	141.87546	-55.49137	-73.48850	156.43992	-67.38373	-111.10326	196.45671	-35.82360	-104.79459	100.14825	168.26834	-213.52154	431.80940	176.88586	123.39206	469.35992	56.02872	-206.32165	252.07441	155.95314	130.66086	230.83900	
265	2.640	126.22642	-39.96395	981.47365	137.75757	-59.87733	793.83171	257.44820	-17.35571	952.75063	218.74775	30.78688	648.13445	225.55395	-145.60948	640.43099	116.30119	-27.61161	707.49326	119.21398	-99.14828	704.74789	208.94194	-5.21827	379.53190	172.12585	59.88118	343.43853	111.75007	79.13828	73.66182	104.15287	10.47271	90.40003	67.56007	44.95009	105.22354	155.39021	36.33339	69.16627	225.94800	-92.54485	348.02598	164.87474	-139.29341	328.18719	-33.35739	-141.89159	143.93490	-31.71275	-73.52681	158.05100	-44.36442	-110.82903	198.06136	-10.78765	-105.58201	102.77004	187.46942	-213.17798	434.49089	179.89732	124.90474	470.62560	79.36096	-206.16871	254.65209	153.20911	131.72172	231.58815	
266	2.650	136.93414	-41.93834	983.31422	148.08211	-61.00647	795.51224	267.94527	-19.15429	954.58732	227.29589	32.07259	649.90979	237.42030	-144.17004	641.78641	126.12717	-28.57057	709.27622	130.10061	-99.92632	706.04785	211.07291	-3.37587	379.84816	172.53123	61.33354	344.54481	111.02110	78.13340	74.66596	105.20395	9.45644	91.52423	67.68374	43.12702	106.52692	155.54591	36.15440	69.72446	248.96848	-92.17477	352.31595	188.36700	-138.99870	330.50898	-8.47505	-142.15913	145.36547	-6.82746	-73.65574	159.12320	-20.39513	-110.70797	199.00523	15.66656	-106.34369	104.99236	206.60181	-212.94955	437.48589	183.04346	126.09645	471.76325	103.39867	-206.08319	257.13946	151.00104	132.53256	232.39501	
267	2.660	147.66249	-43.79859	984.92347	158.11543	-62.00907	796.91064	278.45522	-20.93815	956.00269	235.69227	33.18997	651.37509	249.00878	-142.83313	643.03950	135.69294	-29.57074	710.56953	140.70362	-100.69349	706.95020	213.74271	-1.68863	380.04632	173.52791	62.56095	345.55011	110.63776	77.31168	75.68095	106.46910	8.63007	92.65921	68.14495	41.57709	107.89610	155.92640	36.06176	70.23161	272.01283	-91.82651	357.12734	212.08036	-138.76642	333.19718	17.63759	-142.52151	146.16862	19.11805	-73.89419	159.62791	4.50472	-110.75618	199.27362	43.43104	-107.10842	106.78749	225.69225	-212.80713	440.70296	186.37292	127.04465	472.78105	128.11150	-206.05874	259.49404	149.50439	133.22345	233.21732	
268	2.670	158.44648	-45.51997	986.24997	167.89906	-62.93768	797.99067	289.02296	-22.69280	956.93982	243.95690	34.14004	652.53486	260.36006	-141.61244	644.09109	145.01320	-30.67154	711.35428	151.04817	-101.51452	707.39784	216.96135	-0.07497	380.09981	175.14541	63.66421	346.43654	110.62711	76.79216	76.66778	107.90646	8.12092	93.79554	68.94026	40.46766	109.30673	156.52255	36.13856	70.67029	294.98788	-91.46538	362.36919	235.95984	-138.57094	336.19019	44.91450	-143.00512	146.37124	46.07951	-74.26042	159.55015	30.30717	-110.98285	198.86605	72.40132	-107.91480	108.15184	244.76693	-212.71520	444.05927	189.93287	127.81953	473.68610	153.44353	-206.09044	261.69740	148.82581	133.90918	234.01509	
269	2.680	169.31894	-47.09407	987.25357	177.48308	-63.84484	798.72942	299.68994	-24.41287	957.36161	252.11978	34.92682	653.39983	271.52002	-140.51740	644.85924	154.11924	-31.91594	711.62974	161.17028	-102.43877	707.35378	220.68863	1.51542	379.98738	177.36655	64.72156	347.19158	110.98131	76.64384	77.59251	109.46651	8.00389	94.91949	70.03799	39.89621	110.73018	157.31151	36.43628	71.02847	317.78324	-91.05721	367.94437	259.92655	-138.38547	339.42619	73.28452	-143.63524	146.01254	74.01307	-74.77250	158.88231	56.97623	-111.39360	197.78696	102.47834	-108.80499	109.09638	263.83777	-212.63637	447.48102	193.76601	128.47853	474.48107	179.31335	-206.17612	263.74636	148.99371	134.67569	234.75359	
270	2.690	180.30900	-48.52817	987.90518	186.92558	-64.77876	799.11563	310.49233	-26.10187	957.25183	260.22292	35.55594	653.98366	282.53914	-139.55418	645.28217	163.06031	-33.32746	711.41125	171.11749	-103.49724	706.80148	224.85001	3.10304	379.69467	180.13615	65.78314	347.80877	111.65808	76.88120	78.43058	111.09694	8.29612	96.01585	71.38300	39.88290	112.13877	158.25744	36.97182	71.30012	340.27203	-90.57178	373.74605	283.87368	-138.18392	342.83898	102.67269	-144.43452	145.13115	102.86932	-75.44887	157.61849	84.46657	-111.99448	196.03756	133.56554	-109.81783	109.63648	282.89176	-212.53540	450.90023	197.90680	129.06363	475.16315	205.61712	-206.31672	265.64069	149.95997	135.57169	235.40676	
